<?xml version="1.0" standalone="no"?>
<!DOCTYPE svg PUBLIC "-//W3C//DTD SVG 20010904//EN"
 "http://www.w3.org/TR/2001/REC-SVG-20010904/DTD/svg10.dtd">
<svg version="1.0" xmlns="http://www.w3.org/2000/svg"
 width="4000.000000pt" height="1100.000000pt" viewBox="0 0 4000.000000 1100.000000"
 preserveAspectRatio="xMidYMid meet">

<g transform="translate(0.000000,1100.000000) scale(0.100000,-0.100000)"
fill="#ffffff" stroke="none">
<path d="M2912 10348 c-9 -9 -12 -330 -12 -1384 l0 -1371 21 -27 c11 -14 53
-45 92 -67 40 -23 146 -86 237 -139 452 -265 889 -520 940 -548 25 -13 50 -28
55 -32 6 -4 53 -32 105 -62 52 -31 174 -101 270 -158 96 -56 234 -136 305
-178 72 -41 180 -104 240 -140 61 -35 151 -88 200 -117 50 -29 140 -82 200
-117 61 -36 225 -131 365 -213 360 -209 474 -277 482 -289 4 -6 8 -20 8 -32 0
-16 -23 -34 -102 -79 -90 -51 -618 -351 -933 -530 -60 -34 -211 -120 -335
-190 -124 -70 -270 -153 -325 -185 -55 -31 -152 -86 -215 -122 -225 -128 -560
-318 -915 -520 -198 -113 -426 -243 -508 -289 -116 -66 -150 -91 -162 -115
-13 -28 -15 -205 -15 -1391 0 -1071 3 -1363 13 -1383 23 -46 60 -38 188 36 63
37 159 93 214 124 55 32 192 112 305 177 113 65 270 157 350 203 80 46 181
104 225 130 44 26 157 91 250 145 94 54 251 145 350 203 99 57 225 130 280
162 55 31 156 90 225 130 69 40 172 99 230 133 58 33 157 90 220 127 63 37
165 95 225 130 61 35 157 91 215 125 58 34 152 89 210 122 58 33 159 92 225
130 66 38 224 129 350 203 262 151 454 262 570 330 44 26 145 84 225 130 80
46 181 104 225 130 44 26 184 107 310 180 127 73 282 163 345 199 63 37 165
96 225 131 61 35 162 93 225 130 63 37 165 95 225 130 61 35 162 94 225 131
63 36 219 126 345 199 127 74 284 165 350 203 66 38 165 96 220 127 55 32 192
112 305 177 113 65 270 157 350 203 169 97 180 105 180 136 0 27 -29 51 -130
108 -73 41 -430 247 -660 381 -63 37 -221 128 -350 203 -129 75 -271 157 -315
182 -156 91 -282 164 -445 258 -91 52 -169 98 -175 102 -5 4 -32 20 -60 35
-27 15 -135 77 -240 138 -104 60 -248 144 -320 185 -71 42 -166 97 -210 123
-44 26 -96 56 -115 66 -55 32 -351 202 -510 295 -80 46 -248 144 -375 217
-215 124 -377 219 -570 331 -44 26 -145 84 -225 130 -80 46 -181 104 -225 130
-208 121 -358 208 -570 330 -126 73 -266 154 -310 180 -44 26 -145 84 -225
130 -80 46 -179 104 -220 128 -41 25 -95 56 -120 70 -25 13 -81 46 -125 72
-44 26 -141 82 -215 125 -260 149 -337 194 -540 312 -113 65 -270 157 -350
203 -80 46 -181 104 -225 131 -44 26 -96 56 -115 66 -19 11 -111 64 -205 118
-244 141 -231 135 -253 113z"/>
<path d="M1640 6882 c0 -682 1 -730 18 -744 9 -9 80 -49 157 -91 77 -41 192
-103 255 -137 63 -34 153 -83 200 -107 47 -25 99 -53 115 -63 17 -10 66 -37
110 -60 44 -24 109 -59 145 -79 36 -20 74 -41 85 -46 11 -6 21 -17 22 -25 2
-10 -99 -75 -300 -193 -518 -305 -764 -452 -781 -466 -14 -12 -16 -87 -16
-748 l0 -735 23 4 c12 2 189 103 392 223 204 120 379 224 390 230 11 6 121 71
245 144 201 119 416 246 785 464 66 39 163 96 215 127 52 31 151 90 220 130
193 113 338 199 415 245 39 23 256 151 483 285 227 133 411 248 409 254 -3 9
-370 228 -1597 952 -63 37 -146 87 -185 110 -38 23 -137 81 -220 129 -82 49
-193 114 -245 145 -52 31 -151 90 -220 130 -69 40 -168 99 -220 130 -52 31
-151 90 -220 130 -146 85 -483 284 -588 347 -40 23 -77 43 -82 43 -6 0 -10
-267 -10 -728z"/>
<path d="M13380 7063 l-276 -3 -13 -33 c-15 -35 -67 -174 -136 -362 -40 -109
-67 -182 -171 -460 -18 -49 -56 -151 -83 -225 -27 -74 -68 -184 -91 -245 -60
-161 -118 -317 -157 -425 -18 -52 -40 -108 -47 -125 -8 -16 -29 -70 -46 -120
-46 -127 -122 -334 -164 -445 -19 -52 -54 -147 -77 -210 -22 -63 -45 -119 -50
-124 -32 -34 -16 -36 379 -36 l387 0 13 28 c7 16 28 73 47 128 19 54 56 160
82 234 l48 135 486 3 c382 2 489 -1 496 -10 6 -7 24 -53 41 -103 17 -49 52
-146 77 -215 26 -69 52 -141 59 -160 l13 -35 396 -3 396 -2 -16 42 c-9 24 -35
95 -58 158 -24 63 -60 160 -80 215 -21 55 -53 142 -72 194 -18 51 -39 107 -47
125 -8 17 -31 78 -50 136 -20 58 -43 119 -50 135 -8 17 -28 68 -44 115 -60
169 -103 286 -116 315 -7 17 -28 73 -46 125 -18 52 -36 100 -40 105 -4 6 -22
55 -40 110 -18 55 -36 105 -40 110 -4 6 -26 62 -48 125 -23 63 -59 162 -80
220 -63 169 -118 316 -169 455 l-48 130 -145 0 c-80 0 -269 -1 -420 -2z m176
-974 c18 -52 69 -200 114 -329 130 -374 140 -403 140 -412 0 -4 -133 -8 -295
-8 -229 0 -295 3 -295 13 0 15 47 165 60 192 6 11 26 65 44 120 19 55 55 159
81 230 25 72 58 167 73 213 15 45 31 81 36 79 5 -2 24 -46 42 -98z"/>
<path d="M25550 5660 l0 -1410 598 0 c536 0 788 8 832 27 8 3 25 8 38 10 123
21 301 95 430 180 124 82 187 140 304 282 40 48 117 181 160 273 51 111 101
282 124 423 17 104 17 378 0 480 -69 414 -272 728 -613 948 -132 85 -375 163
-541 174 -51 3 -95 10 -98 15 -3 4 -282 8 -620 8 l-614 0 0 -1410z m1285 759
c239 -77 407 -272 459 -534 4 -16 9 -41 12 -55 35 -143 -14 -436 -97 -586 -92
-167 -210 -269 -378 -326 l-96 -33 -225 0 -225 0 -3 770 c-1 424 0 776 3 783
3 9 59 12 230 12 225 0 227 0 320 -31z"/>
<path d="M15830 6824 c-75 -9 -188 -38 -255 -64 -117 -47 -195 -98 -287 -190
-72 -72 -94 -103 -132 -181 -96 -199 -110 -424 -38 -627 36 -101 70 -157 139
-232 111 -121 216 -180 559 -315 251 -99 307 -127 339 -170 47 -61 44 -152 -5
-209 -61 -69 -236 -115 -379 -100 -149 15 -336 91 -466 189 -32 25 -62 41 -66
37 -12 -11 -249 -478 -249 -488 0 -9 54 -43 203 -127 321 -180 643 -228 969
-142 200 52 324 120 454 250 78 77 98 103 137 185 62 128 81 228 74 379 -9
199 -61 331 -175 453 -123 130 -213 182 -551 315 -258 102 -296 120 -340 167
-28 29 -35 45 -39 90 -6 69 10 114 54 159 96 96 291 89 505 -19 52 -25 113
-60 137 -76 24 -17 46 -27 50 -23 3 3 61 110 128 238 l121 232 -26 22 c-36 31
-248 136 -349 173 -150 54 -389 89 -512 74z"/>
<path d="M30690 6819 c-305 -37 -551 -156 -760 -368 -112 -112 -175 -199 -239
-327 -219 -442 -190 -995 74 -1400 63 -98 200 -244 295 -315 84 -64 234 -141
346 -178 348 -117 814 -79 1120 90 378 208 584 640 584 1225 l0 124 -620 0
-620 0 0 -260 0 -260 284 0 284 0 -9 -42 c-37 -166 -213 -333 -405 -383 -74
-19 -222 -19 -316 0 -210 43 -373 193 -449 412 -62 180 -63 462 -2 673 66 230
217 388 414 435 81 19 234 19 323 0 152 -32 322 -147 409 -275 16 -25 31 -46
32 -48 2 -3 496 268 509 279 19 17 -141 229 -241 319 -126 113 -304 211 -460
254 -158 43 -406 64 -553 45z"/>
<path d="M17210 5496 l0 -1246 325 0 325 0 0 434 0 434 318 4 c292 4 323 6
392 27 196 59 359 189 438 351 69 140 86 218 86 405 0 132 -3 175 -22 247 -64
255 -224 446 -442 527 -147 55 -140 54 -802 58 l-618 4 0 -1245z m973 743
c186 -29 271 -125 270 -309 0 -152 -51 -243 -165 -296 -61 -28 -68 -29 -250
-32 l-188 -4 0 326 0 326 131 0 c71 0 163 -5 202 -11z"/>
<path d="M19490 5495 l0 -1245 320 0 320 0 0 1245 0 1245 -320 0 -320 0 0
-1245z"/>
<path d="M20690 5496 l0 -1246 323 2 322 3 3 438 2 437 63 0 63 0 71 -117 c38
-65 156 -263 262 -440 l192 -323 384 0 c212 0 385 2 385 4 0 5 -637 994 -652
1013 -6 8 15 24 74 55 97 50 198 144 245 228 126 222 131 552 12 781 -100 192
-288 326 -534 382 -83 19 -132 21 -652 24 l-563 4 0 -1245z m960 733 c68 -15
138 -64 175 -123 29 -48 30 -53 30 -170 0 -137 -11 -172 -77 -238 -58 -58
-137 -78 -314 -78 l-144 0 0 310 0 310 140 0 c76 0 162 -5 190 -11z"/>
<path d="M23050 5495 l0 -1245 725 0 725 0 0 275 0 275 -400 0 -400 0 0 210 0
210 370 0 370 0 0 275 0 275 -370 0 -370 0 0 200 0 200 395 0 395 0 0 285 0
285 -720 0 -720 0 0 -1245z"/>
<path d="M28475 6728 c-3 -7 -4 -566 -3 -1243 l3 -1230 323 -3 322 -2 0 1245
0 1245 -320 0 c-247 0 -322 -3 -325 -12z"/>
<path d="M32510 5495 l0 -1245 323 2 322 3 0 1240 0 1240 -322 3 -323 2 0
-1245z"/>
<path d="M36438 6733 l-246 -3 -10 -28 c-12 -33 -619 -1668 -783 -2108 -65
-176 -119 -326 -119 -332 0 -9 82 -12 341 -10 l341 3 69 190 c38 105 75 207
81 228 l11 37 433 0 432 0 76 -207 c42 -115 81 -218 86 -230 l10 -23 345 0
c190 0 345 4 345 8 0 5 -108 301 -241 658 -132 357 -262 708 -288 779 -134
364 -365 984 -377 1013 l-13 32 -123 -2 c-68 -2 -234 -4 -370 -5z m251 -1143
c67 -195 121 -361 121 -367 0 -10 -59 -13 -261 -13 -205 0 -260 3 -256 13 2 6
57 163 122 347 65 184 122 348 127 363 6 16 14 25 18 20 4 -4 62 -168 129
-363z"/>
<path d="M38210 5495 l0 -1245 715 0 715 0 0 285 0 285 -390 0 -390 0 -2 958
-3 957 -322 3 -323 2 0 -1245z"/>
<path d="M33470 6435 l0 -295 255 0 255 0 0 -945 0 -945 340 0 340 0 0 945 0
945 255 0 255 0 0 295 0 295 -850 0 -850 0 0 -295z"/>
<path d="M640 5494 c0 -631 2 -715 15 -710 20 7 1228 696 1238 706 7 6 -33 32
-193 123 -19 11 -156 89 -305 175 -148 85 -308 176 -355 202 -47 26 -152 87
-234 134 -82 47 -153 86 -158 86 -4 0 -8 -322 -8 -716z"/>
</g>
</svg>
